<svg width="48" height="48" viewBox="0 0 48 48" fill="none" xmlns="http://www.w3.org/2000/svg">
<g id="Icon">
<g id="Group 2">
<path id="Vector" d="M28.3116 23.6451C28.0708 23.6451 27.8472 23.5789 27.6486 23.4724V23.4753C27.6486 23.8541 27.5014 24.2099 27.2342 24.4763C26.967 24.7435 26.6115 24.8907 26.2331 24.8907C25.9888 24.8907 25.7624 24.8229 25.5617 24.7136C25.5414 25.0601 25.4029 25.3841 25.1557 25.6315C24.8886 25.8987 24.5331 26.0459 24.1544 26.0459C23.4021 26.0459 22.7912 25.4545 22.7472 24.7133C22.5144 24.8392 22.2513 24.9051 21.9798 24.8877C21.2398 24.8392 20.6602 24.1998 20.6602 23.4317V17.065L19.9353 18.321C19.6592 18.8014 19.1423 19.0996 18.5858 19.0996C18.3146 19.0996 18.0467 19.0285 17.8095 18.8925C17.514 18.7213 17.3027 18.4463 17.2148 18.1174C17.1265 17.7883 17.1722 17.4441 17.343 17.1491C17.3432 17.1491 19.715 13.0419 19.8597 12.7896C19.8769 12.7516 19.9259 12.6416 19.9676 12.5478C20.0074 12.4583 20.0416 12.3664 20.0743 12.2741C20.7896 10.2548 22.5606 9.00047 24.6965 9.00047C27.4702 9.00047 29.7268 11.4474 29.7268 14.4551L29.727 22.2294C29.727 22.6078 29.58 22.9633 29.313 23.2307C29.0459 23.4979 28.6904 23.6451 28.3115 23.6451L28.3116 23.6451ZM24.6965 9.75261C22.8612 9.75261 21.3984 10.7893 20.7833 12.5256C20.7439 12.6359 20.7029 12.7461 20.6551 12.8536C20.5163 13.1648 20.5163 13.1648 20.4772 13.2096L20.472 13.2051C20.2784 13.5705 19.703 14.5668 17.9942 17.5255C17.924 17.6468 17.9054 17.7877 17.9412 17.9225C17.9775 18.0572 18.0645 18.1708 18.1849 18.2403C18.5585 18.4549 19.0702 18.3164 19.2832 17.9453L20.7107 15.4739C20.796 15.3266 20.9684 15.2543 21.1338 15.2991C21.2983 15.3431 21.4125 15.4923 21.4125 15.6624V23.4319C21.4125 23.7985 21.6891 24.1149 22.0291 24.1372C22.2251 24.1476 22.408 24.0819 22.5453 23.9448C22.6702 23.8199 22.739 23.6536 22.739 23.4757V18.3943C22.739 18.1865 22.9074 18.0181 23.1152 18.0181C23.323 18.0181 23.4915 18.1863 23.4915 18.3943L23.4912 24.6307C23.4912 24.9963 23.7888 25.2939 24.1544 25.2939C24.3321 25.2939 24.4989 25.2251 24.624 25.1002C24.7489 24.9751 24.8177 24.8083 24.8177 24.6307V18.3943C24.8177 18.1865 24.9859 18.0181 25.1939 18.0181C25.4017 18.0181 25.5702 18.1863 25.5702 18.3943L25.5699 23.4172V23.4757C25.5699 23.8411 25.8675 24.1386 26.2334 24.1386C26.4108 24.1386 26.5771 24.0696 26.7029 23.9443C26.8278 23.8196 26.8966 23.6533 26.8966 23.4754V18.394C26.8966 18.1862 27.0648 18.0178 27.2728 18.0178C27.4806 18.0178 27.6491 18.186 27.6491 18.394L27.6486 22.2296C27.6486 22.5955 27.9462 22.893 28.3116 22.893C28.4894 22.893 28.6558 22.824 28.7806 22.6994C28.906 22.574 28.9745 22.4072 28.9745 22.2296L28.9748 14.4552C28.9748 11.8625 27.0556 9.75269 24.6965 9.75269L24.6965 9.75261Z" fill="#103E13"/>
<path id="Vector_2" d="M13.529 29.048L18.9888 25.7727C19.647 25.3774 20.494 25.5454 20.9162 26.1553C21.0703 26.3775 21.149 26.6364 21.1612 26.9001C21.3648 26.7938 21.5862 26.7361 21.8117 26.7361C21.9271 26.7361 22.043 26.7505 22.1575 26.779C22.5244 26.8706 22.8335 27.0999 23.0279 27.424C23.2225 27.7487 23.2792 28.1291 23.1876 28.4955C23.103 28.8346 22.8969 29.1199 22.6101 29.3157C22.8106 29.4339 22.9836 29.5953 23.1065 29.8008C23.3012 30.1254 23.3579 30.5057 23.2665 30.8725C23.1749 31.2389 22.9456 31.548 22.621 31.7429L22.6191 31.744C22.8161 31.8621 22.9859 32.0218 23.1075 32.2242C23.3023 32.5488 23.3591 32.9293 23.2675 33.2961C23.1756 33.6627 22.9463 33.9718 22.6222 34.1664L15.9558 38.1657C14.7116 38.9119 13.2732 39.1694 11.9063 38.8902C10.5271 38.6084 9.38491 37.8157 8.6904 36.6579C7.59132 34.8261 7.75603 32.6619 9.11943 31.0101C9.18186 30.9347 9.24335 30.8579 9.29919 30.7783C9.35833 30.6942 9.42736 30.5952 9.45091 30.5613C9.59203 30.3092 11.8948 26.1603 11.8946 26.1608C12.1271 25.7412 12.5629 25.5037 13.0125 25.5039C13.2221 25.5039 13.4349 25.5555 13.6312 25.6644C13.8682 25.7968 14.0672 25.9898 14.2065 26.2223C14.4927 26.6994 14.5029 27.2964 14.2333 27.7796L13.529 29.048ZM13.5618 26.6091C13.4888 26.4873 13.3884 26.3902 13.2656 26.3214C13.0119 26.181 12.6924 26.2724 12.5527 26.5252C10.905 29.4937 10.3433 30.5054 10.1265 30.8654L10.1315 30.8666C10.1133 30.9269 10.1133 30.9269 9.91496 31.2103C9.84758 31.3062 9.77431 31.3983 9.69962 31.489C8.52726 32.9094 8.39113 34.6969 9.33515 36.2709C9.91991 37.2458 10.8863 37.9142 12.0565 38.1531C13.2395 38.3937 14.4862 38.1699 15.5684 37.5206L22.2354 33.5211C22.3876 33.4299 22.495 33.285 22.5379 33.1133C22.5808 32.9417 22.5542 32.7634 22.4627 32.6112C22.2747 32.2979 21.8664 32.1949 21.5531 32.3836L18.2642 34.3568C18.0861 34.4637 17.8547 34.4062 17.748 34.2279C17.641 34.0498 17.6987 33.8187 17.8768 33.7117L21.166 31.7386L22.2342 31.0977C22.3864 31.0063 22.4941 30.8614 22.537 30.6901C22.5798 30.5184 22.5532 30.3398 22.4618 30.1879C22.2736 29.8743 21.8653 29.7723 21.5522 29.9603L17.1948 32.5742C17.0162 32.6814 16.7856 32.6235 16.6786 32.4454C16.5716 32.2673 16.6296 32.0361 16.8075 31.9292L22.1553 28.7211C22.3075 28.6296 22.4149 28.485 22.4578 28.3132C22.5007 28.1417 22.4741 27.9634 22.3829 27.8112C22.2917 27.6592 22.1468 27.5518 21.9751 27.5089C21.8024 27.466 21.6247 27.4927 21.473 27.5836L20.483 28.1775C20.4828 28.1775 20.4828 28.1778 20.4826 28.1778H20.4823L16.1252 30.7917C15.9466 30.8992 15.7157 30.8412 15.609 30.6629C15.502 30.4848 15.56 30.2536 15.7379 30.1467L20.0952 27.5327C20.2474 27.4413 20.3551 27.2964 20.398 27.1251C20.4451 26.9371 20.4093 26.7449 20.2976 26.5837C20.104 26.3036 19.6898 26.2291 19.3757 26.4179L12.7136 30.4146C12.5677 30.5017 12.3809 30.4805 12.2586 30.3625C12.1361 30.2442 12.1085 30.0583 12.191 29.9097L13.5763 27.4137C13.7153 27.1642 13.7099 26.8561 13.5617 26.6092L13.5618 26.6091Z" fill="#103E13"/>
<path id="Vector_3" d="M39.618 36.6581C38.9237 37.8161 37.7818 38.6086 36.4024 38.8904C35.0352 39.1691 33.5974 38.9121 32.3529 38.1659L25.6859 34.1665C25.3615 33.9719 25.132 33.6627 25.0401 33.2957C24.949 32.9293 25.006 32.5488 25.2003 32.2246C25.3217 32.022 25.4918 31.8623 25.689 31.7442L25.6871 31.7431C25.3627 31.5485 25.1332 31.2393 25.0418 30.8727C24.9499 30.5062 25.0069 30.1254 25.2015 29.8008C25.3269 29.5923 25.4986 29.4293 25.6946 29.3136C25.41 29.1178 25.2051 28.8334 25.1207 28.496C25.0288 28.1292 25.0859 27.7487 25.2805 27.4245C25.4748 27.1001 25.7842 26.8709 26.1508 26.7792C26.2653 26.7505 26.3814 26.7363 26.4964 26.7363C26.7221 26.7366 26.9436 26.7938 27.1471 26.9003C27.1596 26.6367 27.2381 26.3778 27.3921 26.1556C27.8146 25.5461 28.6608 25.3774 29.32 25.773L34.7796 29.0478L34.0758 27.7802C33.8059 27.2963 33.8157 26.6993 34.102 26.222C34.2415 25.9897 34.4408 25.7967 34.679 25.6632C34.8748 25.5548 35.0868 25.5034 35.296 25.5034C35.7453 25.5037 36.1816 25.7407 36.4139 26.1603C37.2234 27.6189 38.751 30.3697 38.8584 30.5618C38.8813 30.595 38.9503 30.6939 39.0094 30.778C39.0658 30.8579 39.1265 30.9342 39.1894 31.0101C40.5526 32.6626 40.7171 34.8265 39.618 36.6581L39.618 36.6581ZM38.609 31.4896C38.5341 31.3989 38.4606 31.3063 38.3937 31.2109C38.1901 30.922 38.1849 30.9145 38.1696 30.8389C37.9317 30.4452 37.3512 29.4001 35.7555 26.5253C35.6155 26.2729 35.2975 26.1808 35.0442 26.3208C34.9196 26.3905 34.8194 26.4878 34.7464 26.6096C34.5984 26.8563 34.5928 27.1645 34.7325 27.4147L36.1173 29.9099C36.2 30.0588 36.1725 30.2444 36.0502 30.3627C35.9282 30.4812 35.7416 30.5019 35.595 30.4148L28.9328 26.4181C28.6188 26.2298 28.2049 26.3036 28.0107 26.5839C27.899 26.7451 27.8635 26.9373 27.9101 27.1251C27.953 27.2966 28.0607 27.4413 28.2131 27.5327C28.2136 27.5329 28.2138 27.5334 28.2143 27.5336L32.5703 30.1469C32.7484 30.2538 32.8061 30.4847 32.6991 30.6631C32.5922 30.8409 32.3615 30.8991 32.1829 30.7919L26.8351 27.5838C26.6834 27.4929 26.5048 27.466 26.3333 27.5091C26.1613 27.552 26.0166 27.6595 25.9255 27.8119C25.834 27.9638 25.8077 28.1422 25.8501 28.3137C25.8929 28.4852 26.0006 28.6301 26.1528 28.7215L27.1934 29.3456L31.5004 31.9297C31.6785 32.0367 31.7362 32.2675 31.6293 32.4459C31.5223 32.6238 31.2917 32.6817 31.1131 32.5748L26.7562 29.9608C26.4428 29.7723 26.0348 29.8746 25.8463 30.1884C25.7549 30.3406 25.7285 30.5189 25.7709 30.6904C25.8138 30.862 25.9215 31.0066 26.0739 31.0983L27.1421 31.7391L30.4308 33.7122C30.6089 33.8192 30.6666 34.0501 30.5597 34.2284C30.4527 34.4063 30.222 34.4647 30.0435 34.3573L26.7548 32.3841C26.603 32.2932 26.4252 32.2663 26.2527 32.3095C26.0812 32.3523 25.9361 32.4598 25.8449 32.6117C25.7537 32.7639 25.7271 32.9425 25.7695 33.1138C25.8124 33.2853 25.92 33.43 26.0725 33.5216L32.7395 37.5211C33.8214 38.1702 35.0691 38.3949 36.2513 38.1537C37.4213 37.9148 38.3877 37.2464 38.9725 36.2715C39.9175 34.6972 39.7815 32.9095 38.6094 31.4895L38.609 31.4896Z" fill="#103E13"/>
</g>
</g>
</svg>
