<svg width="48" height="48" viewBox="0 0 48 48" fill="none" xmlns="http://www.w3.org/2000/svg">
<g id="Icon">
<g id="Group 1">
<path id="Vector" d="M26.9164 19.0106C26.6043 19.0106 26.3507 18.7574 26.3507 18.445V17.4836C26.3507 17.1716 26.6039 16.918 26.9164 16.918C27.2284 16.918 27.482 17.1712 27.482 17.4836V18.445C27.482 18.7574 27.2284 19.0106 26.9164 19.0106Z" fill="#103E13"/>
<path id="Vector_2" d="M24.5381 19.0106C24.226 19.0106 23.9724 18.7574 23.9724 18.445V17.4836C23.9724 17.1716 24.2256 16.918 24.5381 16.918C24.8501 16.918 25.1037 17.1712 25.1037 17.4836V18.445C25.1033 18.7574 24.8505 19.0106 24.5381 19.0106Z" fill="#103E13"/>
<path id="Vector_3" d="M22.16 19.0106C21.848 19.0106 21.5944 18.7574 21.5944 18.445V17.4836C21.5944 17.1716 21.8476 16.918 22.16 16.918C22.4721 16.918 22.7257 17.1712 22.7257 17.4836V18.445C22.7257 18.7574 22.4725 19.0106 22.16 19.0106Z" fill="#103E13"/>
<path id="Vector_4" d="M26.9164 22.9419C26.6043 22.9419 26.3507 22.6886 26.3507 22.3762V21.4153C26.3507 21.1033 26.6039 20.8496 26.9164 20.8496C27.2284 20.8496 27.482 21.1029 27.482 21.4153V22.3762C27.482 22.6886 27.2284 22.9419 26.9164 22.9419Z" fill="#103E13"/>
<path id="Vector_5" d="M24.5381 22.9419C24.226 22.9419 23.9724 22.6886 23.9724 22.3762V21.4153C23.9724 21.1033 24.2256 20.8496 24.5381 20.8496C24.8501 20.8496 25.1037 21.1029 25.1037 21.4153V22.3762C25.1033 22.6886 24.8505 22.9419 24.5381 22.9419Z" fill="#103E13"/>
<path id="Vector_6" d="M22.16 22.9419C21.848 22.9419 21.5944 22.6886 21.5944 22.3762V21.4153C21.5944 21.1033 21.8476 20.8496 22.16 20.8496C22.4721 20.8496 22.7257 21.1029 22.7257 21.4153V22.3762C22.7257 22.6886 22.4725 22.9419 22.16 22.9419Z" fill="#103E13"/>
<path id="Vector_7" d="M26.9164 26.8729C26.6043 26.8729 26.3507 26.6197 26.3507 26.3073V25.3459C26.3507 25.0339 26.6039 24.7803 26.9164 24.7803C27.2284 24.7803 27.482 25.0335 27.482 25.3459V26.3073C27.482 26.6197 27.2284 26.8729 26.9164 26.8729Z" fill="#103E13"/>
<path id="Vector_8" d="M24.5381 26.8729C24.226 26.8729 23.9724 26.6197 23.9724 26.3073V25.3459C23.9724 25.0339 24.2256 24.7803 24.5381 24.7803C24.8501 24.7803 25.1037 25.0335 25.1037 25.3459V26.3073C25.1033 26.6197 24.8505 26.8729 24.5381 26.8729Z" fill="#103E13"/>
<path id="Vector_9" d="M22.16 26.8729C21.848 26.8729 21.5944 26.6197 21.5944 26.3073V25.3459C21.5944 25.0339 21.8476 24.7803 22.16 24.7803C22.4721 24.7803 22.7257 25.0335 22.7257 25.3459V26.3073C22.7257 26.6197 22.4725 26.8729 22.16 26.8729Z" fill="#103E13"/>
<path id="Vector_10" d="M26.9164 30.8036C26.6043 30.8036 26.3507 30.5504 26.3507 30.2379V29.2766C26.3507 28.9646 26.6039 28.7109 26.9164 28.7109C27.2284 28.7109 27.482 28.9642 27.482 29.2766V30.2379C27.482 30.5504 27.2284 30.8036 26.9164 30.8036Z" fill="#103E13"/>
<path id="Vector_11" d="M24.5381 30.8036C24.226 30.8036 23.9724 30.5504 23.9724 30.2379V29.2766C23.9724 28.9646 24.2256 28.7109 24.5381 28.7109C24.8501 28.7109 25.1037 28.9642 25.1037 29.2766V30.2379C25.1033 30.5504 24.8505 30.8036 24.5381 30.8036Z" fill="#103E13"/>
<path id="Vector_12" d="M22.16 30.8036C21.848 30.8036 21.5944 30.5504 21.5944 30.2379V29.2766C21.5944 28.9646 21.8476 28.7109 22.16 28.7109C22.4721 28.7109 22.7257 28.9642 22.7257 29.2766V30.2379C22.7257 30.5504 22.4725 30.8036 22.16 30.8036Z" fill="#103E13"/>
<path id="Vector_13" d="M26.9164 34.7349C26.6043 34.7349 26.3507 34.4816 26.3507 34.1692V33.2083C26.3507 32.8962 26.6039 32.6426 26.9164 32.6426C27.2284 32.6426 27.482 32.8958 27.482 33.2083V34.1692C27.482 34.4812 27.2284 34.7349 26.9164 34.7349Z" fill="#103E13"/>
<path id="Vector_14" d="M24.5381 34.7349C24.226 34.7349 23.9724 34.4816 23.9724 34.1692V33.2083C23.9724 32.8962 24.2256 32.6426 24.5381 32.6426C24.8501 32.6426 25.1037 32.8958 25.1037 33.2083V34.1692C25.1033 34.4812 24.8505 34.7349 24.5381 34.7349Z" fill="#103E13"/>
<path id="Vector_15" d="M22.16 34.7349C21.848 34.7349 21.5944 34.4816 21.5944 34.1692L21.5948 33.2083C21.5948 32.8962 21.848 32.6426 22.1604 32.6426C22.4725 32.6426 22.7261 32.8958 22.7261 33.2083V34.1692C22.7257 34.4812 22.4725 34.7349 22.16 34.7349V34.7349Z" fill="#103E13"/>
<path id="Vector_16" d="M6.00047 38.6471C6.00047 38.9592 6.25372 39.2128 6.56615 39.2128H41.0139C41.3259 39.2128 41.5796 38.9596 41.5796 38.6471C41.5796 38.3351 41.3263 38.0815 41.0139 38.0815H39.9682V21.8402C39.9682 21.5281 39.715 21.2745 39.4025 21.2745L30.1668 21.2749V9.56576C30.1668 9.36774 30.0635 9.18471 29.8946 9.08214C29.7262 8.97919 29.5156 8.97287 29.3404 9.06399L18.8401 14.531C18.6527 14.6284 18.5359 14.8217 18.5359 15.0327V25.2604H8.37388C8.06186 25.2604 7.8082 25.5137 7.8082 25.8261V38.0816H6.56489C6.25287 38.0812 6 38.3344 6 38.6468L6.00047 38.6471ZM30.167 29.8422H38.8374V38.0819L30.167 38.0815V29.8422ZM30.167 25.9113H38.8374V28.7113L30.167 28.7109V25.9113ZM30.167 22.4056H38.8374V24.7808H30.167V22.4056ZM19.6667 15.3762L29.0353 10.4982V38.081H19.6667V15.3762ZM11.7359 33.5635C11.7359 32.3895 12.666 31.4341 13.8096 31.4341C14.9531 31.4341 15.8837 32.3891 15.8837 33.5635V38.0817H11.7359V33.5635ZM8.93952 26.3916H18.5358V38.0815H17.015V33.5633C17.015 31.7657 15.5776 30.303 13.8096 30.303C12.0424 30.303 10.605 31.7653 10.605 33.5633V38.0815H8.93952V26.3916Z" fill="#103E13"/>
</g>
</g>
</svg>
